<?xml version="1.0" encoding="UTF-8"?>
<svg id="Layer_1" xmlns="http://www.w3.org/2000/svg" version="1.1" viewBox="0 0 39.46 39.46">
  <!-- Generator: Adobe Illustrator 30.0.0, SVG Export Plug-In . SVG Version: 2.1.1 Build 123)  -->
  <defs>
    <style>
      .st0 {
        fill: #1a2942;
      }
    </style>
  </defs>
  <path class="st0" d="M33.95,9.3H5.51c-.98,0-1.78.8-1.78,1.78v17.78c0,.98.8,1.78,1.78,1.78h28.44c.98,0,1.78-.8,1.78-1.78V11.08c0-.98-.8-1.78-1.78-1.78ZM34.66,11.57l-9.51,8.39,9.51,8.39v.5c0,.39-.32.71-.71.71h-.07l-9.81-8.65-2.19,1.93c-.58.51-1.35.79-2.16.79s-1.58-.28-2.16-.79l-2.19-1.93-9.81,8.65h-.04c-.42,0-.74-.32-.74-.71v-.5l9.51-8.39L4.8,11.57v-.5c0-.39.32-.71.71-.71h.04l.06.03,12.9,11.38c.32.28.75.44,1.22.44s.9-.16,1.22-.44l12.93-11.41h.04c.42,0,.74.32.74.71v.5Z"/>
</svg>