<?xml version="1.0" encoding="UTF-8"?>
<svg id="Layer_1" xmlns="http://www.w3.org/2000/svg" xmlns:xlink="http://www.w3.org/1999/xlink" version="1.1" viewBox="0 0 39.46 39.46">
  <!-- Generator: Adobe Illustrator 30.0.0, SVG Export Plug-In . SVG Version: 2.1.1 Build 123)  -->
  <defs>
    <style>
      .st0 {
        fill: none;
      }

      .st1 {
        fill: #1a2942;
      }

      .st2 {
        clip-path: url(#clippath);
      }
    </style>
    <clipPath id="clippath">
      <rect class="st0" x="4.99" y="4.5" width="29.67" height="29.67"/>
    </clipPath>
  </defs>
  <g class="st2">
    <path class="st1" d="M25.35,20.16v-3.53h-.38c-1.17,0-2.34,0-3.51,0-.29,0-.38-.09-.37-.37.03-.52.02-1.05.06-1.57.1-1.21.63-1.76,1.85-1.88.78-.08,1.57-.1,2.35-.14.11,0,.23-.01.37-.02,0-1.05,0-2.07,0-3.08,0-.22-.14-.21-.29-.21-1.43.04-2.86.07-4.29.14-.69.04-1.36.19-1.98.52-.89.48-1.29,1.31-1.47,2.25-.26,1.37-.27,2.76-.26,4.14,0,.13,0,.25,0,.41h-3.5c-.02.06-.04.1-.04.13,0,1.05,0,2.1,0,3.15,0,.26.15.25.32.24.94,0,1.88,0,2.82,0,.13,0,.26.01.41.02v.42c0,2.72,0,5.44,0,8.16,0,.29.08.38.37.37,1.04-.02,2.08,0,3.11,0,.1,0,.21-.01.34-.02v-9.14h4.07ZM4.99,19.33c0-8.22,6.66-14.84,14.9-14.83,8.12.01,14.78,6.68,14.77,14.8-.01,8.28-6.64,14.89-14.92,14.87-8.13-.02-14.76-6.68-14.75-14.84"/>
  </g>
</svg>