<?xml version="1.0" encoding="UTF-8"?>
<svg id="Layer_1" xmlns="http://www.w3.org/2000/svg" version="1.1" viewBox="0 0 498.75 181.52">
  <!-- Generator: Adobe Illustrator 30.0.0, SVG Export Plug-In . SVG Version: 2.1.1 Build 123)  -->
  <defs>
    <style>
      .st0 {
        fill: none;
      }

      .st1 {
        fill: #f5821f;
      }

      .st2 {
        fill: #231f20;
      }

      .st3 {
        fill: #fff;
      }
    </style>
  </defs>
  <polygon class="st2" points="1463.24 -582.82 1630.68 -578.82 1463.24 -574.82 1463.24 -582.82"/>
  <g>
    <g>
      <path class="st3" d="M129.31,156.7c.31.18.4.26.51.28.6.14,1.44.15,1.39.92-.03.5-.6,1.02-1.02,1.43-1.42,1.38-4.12.4-4.42-1.64-.23-1.59-.26-3.15.1-4.7.82-3.53,1.94-6.94,3.77-10.09.47-.81.77-1.71,1.16-2.57-.1-.07-.19-.13-.29-.2-1.14,1.41-2.33,2.78-3.43,4.23-3.31,4.35-6.56,8.74-9.88,13.09-.61.8-1.33,1.54-2.09,2.2-1.14.99-2.34.62-2.93-.78-.52-1.24-.74-2.51-.38-3.8.9-3.19,1.82-6.39,2.81-9.55.74-2.35,1.61-4.65,2.22-7.11-.25.24-.55.45-.73.73-2.18,3.48-4.43,6.91-6.5,10.46-2.02,3.48-4.45,6.65-7.05,9.69-1.12,1.31-2.53,2.42-3.93,3.45-2.96,2.18-6.84,1.69-9.66-1.16-2.13-2.15-3.6-4.74-4.69-7.55-.08-.21-.18-.45-.14-.65.12-.52.16-1.16.5-1.48.49-.47,1.08-.05,1.48.35.51.52.96,1.1,1.4,1.68,1.24,1.6,2.34,3.33,3.71,4.8,2.07,2.21,3.61,2.27,6.11.56,2.55-1.74,4.52-4.04,6.38-6.46,3.78-4.93,6.98-10.23,10.41-15.4,1.58-2.38,3.58-4.48,5.41-6.69.28-.33.69-.58,1.08-.77,1.67-.81,2.48-.34,2.92,1.45.31,1.27.16,2.44-.34,3.61-1.19,2.8-2.39,5.59-3.55,8.4-1.03,2.5-2.01,5.01-2.97,7.54-.23.61-.33,1.28-.27,2.05.29-.29.62-.57.88-.89,5.11-6.3,10.21-12.61,15.34-18.89.89-1.08,1.89-2.09,2.92-3.04,2.16-1.98,4.36-1.34,5.51,1.24-.34.64-.69,1.41-1.15,2.1-2.7,4.11-5.08,8.39-6.91,12.95-1.34,3.33-2.45,6.76-3.69,10.22Z"/>
      <path class="st3" d="M313.11,154.81c.32.25.68.4.82.66.19.36.4.87.28,1.19-.12.32-.63.64-1,.69-1.68.22-3.37-1.2-3.39-3-.01-1.15.12-2.42.59-3.44,1.65-3.52,3.45-6.96,5.24-10.4.92-1.77,1.96-3.48,2.95-5.22-.11-.08-.21-.15-.32-.23-1.22,1.37-2.5,2.68-3.65,4.11-3.51,4.4-6.96,8.84-10.45,13.26-1.4,1.77-2.79,3.53-4.27,5.23-.84.96-1.58.98-2.68.33-.85-.51-1.12-1.17-.79-2.34.26-.92.59-1.82.98-2.7,1.6-3.66,3.19-7.33,4.86-10.95,1.27-2.75,2.68-5.45,4.04-8.19-.92.52-1.62,1.37-2.66,2.81-4.59,6.35-9.59,12.36-15.6,17.44-1.57,1.33-3.37,2.46-5.21,3.4-2.78,1.41-5.73.77-7.93-1.43-.52-.51-.83-1.1-.5-1.81.28-.58,1.38-.81,2.07-.48.2.1.39.22.59.31,2.24,1.05,4.32,1.05,6.49-.44,2.81-1.93,5.26-4.24,7.7-6.58,4.37-4.19,8.03-8.99,11.71-13.76.72-.93,1.23-2.02,1.85-3.02.33-.53.68-1.04,1.05-1.53,1.4-1.85,2.16-2.02,4.15-.94.4.21.78.45,1.16.69,1.27.78,1.5,1.56,1.1,2.98-.86,2.99-2.9,5.3-4.47,7.89-2.01,3.31-4.05,6.6-5.45,10.68.54-.44.83-.63,1.06-.88.87-.96,1.72-1.93,2.57-2.91,4.87-5.62,9.73-11.25,14.6-16.86.74-.85,1.58-1.6,2.32-2.45.66-.76,1.48-.74,2.32-.59.89.16,1.29.77,1.47,1.63.25,1.22.08,2.3-.6,3.38-2.45,3.92-4.92,7.82-7.23,11.82-1.8,3.12-3.4,6.36-5.04,9.57-.33.64-.49,1.36-.75,2.09Z"/>
      <path class="st3" d="M427.34,146.9c-2.14.28-4.02.55-5.9.78-2.29.27-4.58.53-6.88.76-1.18.12-1.97.58-2.3,1.81-.62,2.29-2.24,4.01-3.59,5.86-1.78,2.44-6.26,3.05-8.31.02-.97-1.44-2.06-2.79-3.11-4.22-1.07.41-1.96,1.43-3.26,1.08-.39-.11-.74-.4-1.32-.74.76-.79,1.37-1.43,1.98-2.06.65-.66,1.62-1.14,1.03-2.51,2.33-.04,3.41-1.68,4.83-2.82,3.07-2.47,6.18-4.88,9.25-7.35.55-.44,1.01-1.02,1.47-1.57.57-.68,1.11-1.39,1.64-2.12.69-.94,1.64-1.07,2.71-.99.9.07,1.64.3,1.94,1.29.34,1.11.14,2-.64,2.71-.29.26-.63.52-.79.85-1.12,2.33-1.82,4.8-2.49,7.55.89.12,1.59.31,2.28.3,2.87-.06,5.74-.19,8.6-.3,1.11-.04,2.11.1,2.85,1.65ZM400.47,149.83c.7,2.41,2.2,3.85,4.31,4.75.57.24,1,.01,1.31-.43,1.08-1.51,1.73-3.18,1.77-5.21-2.52.14-4.9.14-7.39.89ZM409.42,142c-.13-.09-.26-.18-.39-.27-1.49,1.25-2.98,2.51-4.46,3.76.05.08.09.17.14.25,1.38-.06,2.75-.12,4.27-.19.16-1.26.3-2.4.44-3.55Z"/>
      <path class="st3" d="M185.58,146.47c-1.59.84-2.72,2.13-3.8,3.46-1.94,2.39-3.83,4.84-5.81,7.2-1.03,1.22-2.11,1.51-2.93,1.04-.9-.51-1.28-1.99-.66-3.36.76-1.69,1.67-3.31,2.57-4.94,2.15-3.89,4.3-7.78,6.49-11.65,1.41-2.5,2.87-4.96,4.32-7.44.65-1.1,1.58-1.91,2.73-2.44.96-.44,1.93-.27,2.64.43.58.57.68,1.34.16,2.34-.42.79-.89,1.58-1.48,2.25-2.77,3.14-5.08,6.59-7.14,10.22-.46.81-.97,1.6-1.23,2.61.6-.54,1.17-1.12,1.81-1.62,1.81-1.42,3.65-2.8,5.48-4.2.4-.31.83-.58,1.23-.89,2.08-1.63,2.86-1.47,4.21,1.04-.31.42-.65.92-1.04,1.38-2.58,3.08-4.7,6.45-6.33,10.13-.26.6-.39,1.26-.63,2.04,1.33.01,1.84.68,1.87,1.9-1.08,1.08-2.49,1.31-3.98,1.22-.77-.05-1.29-.53-1.31-1.3-.03-1.11-.14-2.29.15-3.33.44-1.55,1.19-3.02,1.84-4.52.24-.55.56-1.06.85-1.59Z"/>
      <path class="st3" d="M273.98,145.2c-1.32,1.09-2.63,2.21-3.98,3.27-2.52,1.98-5.06,3.94-7.6,5.88-.4.3-.87.52-1.33.73-1.05.5-2.03.48-2.98-.33-1-.86-1.53-1.87-1.05-3.12.5-1.3,1.06-2.62,1.83-3.78,1.99-3.02,4.32-5.77,6.89-8.31.44-.43.8-.94,1.23-1.39.65-.68,1.49-.52,1.85.35.5,1.2,0,2.22-.66,3.15-1.29,1.84-2.67,3.62-3.96,5.46-.74,1.06-1.39,2.18-2.06,3.29-.13.21-.16.48-.11.82,6.13-3.37,10.81-8.57,16.41-12.69.72.19,1.6.21,1.82,1.16.24,1.03.48,2.12-.2,3.1-.32.46-.76.83-1.1,1.28-3.21,4.2-6.6,8.28-9.57,12.65-2.88,4.23-5.3,8.76-7.31,13.49-.2.47-.4.93-.65,1.37-.53.93-1.01,1.15-1.92.9-1-.27-1.58-.95-1.44-1.95.1-.71.38-1.41.7-2.06,2.22-4.52,5.17-8.57,8.09-12.64,2.27-3.16,4.51-6.32,6.76-9.49.21-.3.37-.63.55-.95-.07-.07-.14-.14-.21-.21Z"/>
      <path class="st3" d="M150.49,150.56c-.82.82-1.64,1.63-2.46,2.46-1.9,1.92-3.74,3.9-5.7,5.75-1.38,1.29-1.97,1.16-3.5-.05-1.94-1.53-2.75-3.39-1.87-5.79,1.47-3.99,3.24-7.81,6.47-10.73.95-.86,2-1.67,3.12-2.28,3-1.65,5.92-1.59,8.61.73.17.15.36.27.55.39.04.03.1.03.24.08.76-.56,1.56-1.16,2.36-1.76.82-.62,1.61-.69,2.43.17.11.93-.57,1.6-1.01,2.35-1.05,1.79-2.23,3.51-3.21,5.34-1.51,2.83-3.02,5.68-3.28,8.97-.06.71-.5,1.1-1.13,1.32-.68.23-1.3.01-1.63-.54-.33-.55-.65-1.24-.63-1.85.05-1.11.34-2.21.56-3.31.07-.36.23-.7.35-1.05-.09-.06-.18-.13-.27-.19ZM140.86,155.9c.55-.16.69-.15.76-.22,3.69-3.48,7.45-6.89,10.53-10.95.53-.7.9-1.52,1.33-2.26-1.08-.94-1.2-1-2.2-.76-1.98.47-3.6,1.55-4.94,3.07-1.69,1.92-3.02,4.09-4.05,6.4-.63,1.41-.91,2.97-1.42,4.71Z"/>
      <path class="st3" d="M218.08,145.55c-3.46,1.94-6.35,4.43-8.9,7.32-.9,1.01-1.77,2.04-2.68,3.05-.34.37-.7.74-1.1,1.04-.77.59-1.58,1.17-2.61.55-.87-.52-1.45-2.06-1.13-3.12.24-.8.5-1.64.94-2.34,2.35-3.71,4.74-7.4,7.19-11.04.47-.7,1.27-1.24,2.01-1.71.76-.48,1.58-.18,2.16.41.58.59.19,1.27-.15,1.86-.88,1.51-1.78,3-2.66,4.51-.16.27-.28.56-.22,1.01,1.37-.95,2.72-1.93,4.11-2.86,2.48-1.66,4.96-3.32,7.48-4.92.53-.34,1.25-.5,1.89-.54,1.43-.08,2.02.74,1.4,2.01-.54,1.11-1.21,2.16-1.93,3.16-1.72,2.37-3.42,4.75-4.65,7.43-.54,1.18-1.14,2.31-.67,3.71.2.6-.69,1.64-1.52,2.02-.77.35-1.43.19-1.98-.44-1.07-1.23-1.11-2.66-.69-4.14.59-2.08,1.64-3.95,2.88-5.7.29-.41.55-.85.83-1.28Z"/>
      <path class="st3" d="M384.68,154.26h6.42c-.43.5-.61.9-.91,1.02-1.76.73-3.49,1.58-5.33,2.04-2.48.63-4.81-1.95-4.09-4.44.8-2.75,2.31-5.12,4.41-7.08.98-.91,1.95-1.82,2.98-2.79-1.75,0-3.35-.04-4.94.03-.38.02-.8.38-1.11.67-.93.9-1.78,1.89-2.72,2.77-1.07.99-2.17,1.96-3.34,2.82-.52.38-1.23.58-1.88.66-.85.1-1.29-.62-.76-1.3.83-1.06,1.74-2.07,2.71-2.99,1.8-1.7,3.68-3.32,5.5-5,.93-.86,1.8-1.8,2.74-2.66.62-.56,1.31-1.02,1.99-1.54.5.38.89.68,1.3.99-.04.48-.08.92-.11,1.38.2.09.34.21.49.21,1.63.03,3.26.06,4.9.07,1.23,0,2.16.51,2.85,1.8-.9.89-1.79,1.88-2.79,2.74-2.56,2.21-5.01,4.53-7.16,7.15-.78.95-1.23,1.98-1.13,3.45Z"/>
      <path class="st3" d="M339.31,144.59c-.1,1.83-.8,3.41-1.91,4.8-2.09,2.61-4.59,4.8-7.46,6.51-1,.59-2.14,1.01-3.26,1.32-2.24.61-4.1-.26-5.65-1.82-.94-.94-1.17-2.17-.8-3.45,1.38-4.76,3.77-8.88,7.7-12,.83-.66,1.74-1.24,2.6-1.87,1.67-1.22,3.36-1.14,4.95.08,1.82,1.4,3.17,3.18,3.74,5.45.08.32.07.67.09.99ZM324.55,154.89c1.61.14,2.92-.64,4.14-1.51,2.31-1.63,4.42-3.51,5.91-5.93.75-1.21,1.22-2.63,1.64-4.01.43-1.4-.61-2.13-1.58-2.85-.92-.68-1.71-.23-2.49.22-.38.22-.76.5-1.05.83-1.21,1.4-2.57,2.71-3.52,4.27-1.22,2-2.16,4.18-3.08,6.34-.33.77-.62,1.71.02,2.63Z"/>
      <path class="st3" d="M170.67,140.9c-.44.19-.66.23-.83.35-3.09,2.31-5.9,4.92-7.81,8.31-.7,1.25-1.05,2.71-1.42,4.11-.16.6.04,1.3.07,1.94,1.21.35,2.2.09,3.07-.42,2.23-1.31,4.41-2.69,6.59-4.07.73-.46,1.37-1.1,2.26-1.26.43.83-.1,1.23-.49,1.58-2.31,2.07-4.7,4.03-7.49,5.44-1.44.73-2.97,1.04-4.55,1.12-1.44.08-3.07-1.02-3.53-2.4-.35-1.04-.4-2.08-.08-3.15.64-2.18,1.6-4.19,2.78-6.13,1.92-3.15,4.77-5.34,7.57-7.6,1.21-.98,2.67-1.06,4.01-.86,1.54.22,2.54,1.44,2.94,2.95.5,1.9.02,3.71-.99,5.33-.73,1.17-1.83,1.11-2.55-.05-.43-.7-.58-1.44-.34-2.26.27-.9.48-1.82.77-2.95Z"/>
      <path class="st3" d="M360.46,153.87c3.6.43,6.77-1.55,10.23-2.12.33.82.04,1.3-.5,1.69-2.8,1.99-5.83,3.44-9.3,3.65-1.32.08-2.56-.48-3.39-1.57-1.41-1.84-1.86-3.89-.63-5.98.91-1.54,1.91-3.06,3.08-4.4,2.08-2.4,4.69-4.18,7.45-5.75,1.67-.95,3.34-.8,5.04-.22.86.29,1.38.9,1.58,1.81.6,2.69.19,3.73-2.18,5.2-2.53,1.57-5.35,2.3-8.25,2.79-2.76.47-3.68,1.91-3.14,4.9ZM363.63,146.79c.47.04.69.11.88.07,2.4-.46,4.6-1.43,6.58-2.85.47-.34.82-.92,1.07-1.46.16-.35.19-1.05-.02-1.22-.31-.25-.96-.34-1.34-.2-2.9,1.11-5.04,3.19-7.16,5.65Z"/>
      <path class="st3" d="M252.93,136.74c-.1.71-.18,1.31-.28,2.06,1.59,0,3.04-.01,4.49,0,.95,0,1.75.24,2.17,1.25.27.65.29,1.17-.2,1.7-.65.7-1.25,1.45-1.91,2.14-2.12,2.2-3.76,4.77-5.43,7.3-.33.49-.53,1.07-.83,1.67q1.87.17,2.82,1c-1.16,1.43-2.65,1.99-4.44,1.77-.72-.09-1.22-.5-1.43-1.25-.36-1.3-.32-2.55.26-3.78,1.34-2.83,3.25-5.25,5.31-7.57.36-.41.71-.82,1.27-1.47-1.53.15-2.75.21-3.94.43-.43.08-.88.49-1.17.86-1.68,2.18-3.31,4.4-4.97,6.6-.64.85-1.26,1.73-1.99,2.51-.41.43-.97.82-1.53.98-1.02.3-1.81-.59-1.39-1.56.28-.66.71-1.28,1.16-1.85,2.99-3.81,5.99-7.6,9.01-11.39.35-.44.74-.85,1.14-1.24.55-.53,1.16-.64,1.9-.16Z"/>
      <path class="st3" d="M345.09,151.16c.89-.77,1.82-1.49,2.66-2.31,3.19-3.1,6.36-6.22,9.53-9.34.62-.61,1.02-.54,1.38.24.44.95.22,1.75-.51,2.45-.94.9-1.91,1.75-2.82,2.68-2.75,2.82-5.45,5.68-8.21,8.49-1.11,1.12-2.29,2.17-3.5,3.19-.93.78-2.02,1.45-3.23.69-1.11-.69-1.2-1.88-.89-3.03.48-1.79.97-3.58,1.6-5.32,1.04-2.86,2.18-5.67,3.3-8.5.21-.52.41-1.05.71-1.53.49-.78.93-.82,1.64-.23,1.81,1.49,2.26,3.4,1.24,5.62-.77,1.69-1.62,3.35-2.42,5.02-.26.55-.51,1.1-.76,1.66.09.08.19.16.28.24Z"/>
      <path class="st3" d="M191.07,154.64c.06-.21.17-.64.3-1.06.74-2.4,2.07-4.49,3.59-6.44,1.66-2.13,3.38-4.2,5.12-6.27.81-.96,1.34-1.1,1.99-.69.69.43,1.12,1.59.77,2.38-.38.87-.85,1.71-1.38,2.51-2.21,3.38-4.44,6.75-6.71,10.09-.33.49-.83.95-1.36,1.21-1.17.59-2.31-.2-2.32-1.73Z"/>
      <path class="st3" d="M205.27,136.4c-1.32,0-2.01-.85-1.6-1.84.86-2.06,2.11-3.86,4.11-4.99.98-.55,1.55-.45,2.11.2.36.42.57.88.21,1.37-1.13,1.53-2.24,3.09-3.46,4.54-.36.42-1.06.56-1.37.71Z"/>
      <path class="st3" d="M228.86,154.17c2.76-.43,4.95-2.15,7.79-2.04-.12.43-.12.82-.3.98-1.86,1.64-3.67,3.35-6.15,4.04-2.67.74-5.48-.96-5.99-3.68-.08-.43-.08-.91.02-1.33.2-.82.4-1.66.76-2.41,1.97-4.14,4.3-8.04,7.73-11.18,1.37-1.25,2.89-2.1,4.82-2.11,2.38-.02,3.91,1.47,4.71,3.44.2.5-.03,1.36-.37,1.86-.49.73-1.19,1.35-1.89,1.9-2.44,1.94-5.14,3.52-8.07,4.54-1.97.69-2.72,2.01-3.05,3.8-.12.64-.02,1.33-.02,2.19ZM231.77,145.74c2.22-.65,5.59-2.63,6.83-3.91.27-.28.51-.59.75-.91.44-.6.37-1.15-.23-1.61-.3-.23-.63-.43-.98-.67-2.62,1.84-4.51,4.25-6.36,7.1Z"/>
    </g>
    <g>
      <path class="st0" d="M373.89,57.72c-.35.94-.53,1.41-.88,2.34,0,14.31,0,28.62,0,42.93.32.88.48,1.32.8,2.2,3.74.18,5.61.27,9.35.45.29-.86.44-1.29.73-2.15,0-14.43,0-28.86,0-43.3-.38-.95-.57-1.43-.95-2.38-3.62-.04-5.44-.06-9.06-.09Z"/>
      <path class="st0" d="M158.54,90.48c2.51-.09,3.77-.13,6.28-.22-1.23-5.87-1.84-8.81-3.07-14.71-1.29,5.96-1.93,8.95-3.21,14.93Z"/>
      <path class="st0" d="M275.82,64.46c0-2.28,0-3.42,0-5.7-.32-.77-.48-1.16-.8-1.94-.56,0-.83,0-1.39,0-.38.77-.57,1.15-.95,1.92,0,2.28,0,3.42,0,5.69.58,1.2.88,1.8,1.46,2.99.67-1.18,1.01-1.78,1.68-2.96Z"/>
      <path class="st0" d="M66.77,93.76c2.51-.08,3.77-.12,6.28-.2-1.23-6.3-1.84-9.46-3.07-15.79-1.29,6.38-1.93,9.58-3.21,15.99Z"/>
      <path class="st0" d="M273.7,101.33c1.26-1.86,1.88-2.78,3.14-4.65-1.87-3.92-2.81-5.87-4.68-9.76-.41,1.29-.61,1.93-1.02,3.22,0,3.47,0,5.2,0,8.67.35.99.53,1.48.88,2.48.67.02,1.01.03,1.68.05Z"/>
      <path class="st3" d="M40.02,77.05c-7.28-3.31-10.91-5-18.19-8.39-.35-1.04-.53-1.56-.88-2.61,0-1.97,0-2.96,0-4.93.35-1.01.53-1.51.88-2.52,4.68-.03,7.01-.04,11.69-.07,3.74,2.54,5.61,3.8,9.35,6.31,0-8.09,0-12.14,0-20.23H13.57c-1.78,4.8-2.67,7.21-4.46,12.02v18.19c1.75,4.67,2.63,7,4.38,11.66,7.22,3.33,10.83,4.98,18.04,8.22.38,1.03.57,1.55.95,2.58,0,3.64,0,5.47,0,9.11-.38,1.05-.57,1.58-.95,2.63-5.26.15-7.89.22-13.15.34-3.71-2.53-5.57-3.81-9.28-6.37v20.51c12.33-.29,18.5-.49,30.83-.97,1.75-4.82,2.63-7.22,4.38-12.02,0-8.84,0-13.26,0-22.1-1.72-4.54-2.59-6.82-4.31-11.38Z"/>
      <path class="st3" d="M77.72,44.63h-17.46c1.43,5.13,2.15,7.69,3.58,12.8-3.75,17.53-7.47,35.07-11.18,52.61-2.19,4.88-3.29,7.32-5.48,12.23,8.07-.34,12.1-.52,20.16-.92-1.49-4.68-2.24-7.03-3.73-11.73.15-.75.22-1.13.37-1.89,4.7-.18,7.06-.28,11.76-.48.12.58.18.87.29,1.45-1.4,4.94-2.1,7.42-3.51,12.39,9.35-.47,14.03-.72,23.38-1.24-2.25-4.69-3.38-7.05-5.63-11.78-4.22-21.14-8.41-42.29-12.57-63.44ZM66.77,93.76c1.29-6.41,1.93-9.61,3.21-15.99,1.23,6.33,1.84,9.49,3.07,15.79-2.51.08-3.77.12-6.28.2Z"/>
      <path class="st3" d="M132.24,91.63c1.84-4.79,2.76-7.17,4.6-11.93-8.39.23-12.58.35-20.97.59,1.84,4.77,2.76,7.14,4.6,11.87,0,3.74,0,5.61,0,9.36.61,1.52.92,2.28,1.54,3.8-3.74.18-5.61.27-9.35.45-.32-.86-.48-1.29-.8-2.15,0-14.46,0-28.93,0-43.39.35-.96.53-1.43.88-2.39,4.41-.05,6.62-.07,11.03-.11,3.71,2.38,5.57,3.55,9.28,5.89,0-7.6,0-11.4,0-19h-30.83c-1.78,4.56-2.67,6.85-4.46,11.44,0,17.44,0,34.88,0,52.32,1.78,4.46,2.67,6.67,4.46,11.1,11.54-.65,23.09-1.33,34.63-2-1.84-4.59-2.76-6.9-4.6-11.53,0-5.73,0-8.6,0-14.33Z"/>
      <path class="st3" d="M169.5,44.63h-17.46c1.43,4.79,2.15,7.18,3.58,11.95-3.75,16.41-7.47,32.83-11.18,49.26-2.19,4.6-3.29,6.9-5.48,11.54,8.07-.47,12.1-.7,20.17-1.15-1.49-4.35-2.24-6.54-3.73-10.91.15-.71.22-1.06.36-1.76,4.71-.22,7.06-.33,11.76-.54.12.54.18.81.29,1.35-1.4,4.62-2.1,6.93-3.51,11.57,9.35-.52,14.03-.77,23.38-1.23-2.25-4.37-3.38-6.57-5.63-10.97-4.22-19.69-8.41-39.39-12.57-59.09ZM158.54,90.48c1.29-5.99,1.93-8.98,3.21-14.93,1.23,5.9,1.84,8.84,3.07,14.71-2.51.09-3.77.13-6.28.22Z"/>
      <path class="st3" d="M228.21,47.5c-2.37,1.1-5.08.94-7.42-.45-1.15-.68-2.08-1.5-2.84-2.42h-.8c1.84,4.47,2.76,6.7,4.6,11.15,0,9.31,0,13.96,0,23.27-3.69-7.85-7.35-15.71-11.01-23.57-.11-.02-.2-.03-.32-.06-4.02-1.07-6.28-3.71-6.53-4.61,0-.01-.01-.02-.02-.03-.87-2.06-1.4-4.11-1.58-6.14h-11.75c1.84,4.55,2.76,6.81,4.6,11.33,0,15.71,0,31.42,0,47.13-1.84,4.57-2.76,6.86-4.6,11.47,8.07-.4,12.1-.58,20.16-.92-1.87-4.37-2.81-6.57-4.68-10.96,0-8.93,0-13.4,0-22.33,5.38,10.96,10.79,21.9,16.22,32.84,4.18-.16,6.27-.23,10.45-.36,0-19.06,0-38.12,0-57.18,1.87-4.41,2.81-6.61,4.68-11h-4.47c-.2.16-.4.32-.61.47-1.41,1-2.75,1.78-4.09,2.41Z"/>
      <path class="st3" d="M264.7,52.88c-.94.79-1.93,1.41-2.95,1.87-.04.09-.07.16-.11.25,0,4.04,0,6.07,0,10.11,2.02,4.13,3.02,6.2,5.04,10.35-2.31,2.45-3.46,3.67-5.77,6.1-1.52,3.84-2.28,5.76-3.8,9.59,0,4.45,0,6.68,0,11.13,1.72,4.15,2.59,6.22,4.31,10.39,6.78.2,10.17.32,16.95.58,1.52-2.19,2.28-3.29,3.8-5.49,1.08,2.29,1.62,3.44,2.7,5.74,4.94.2,7.41.31,12.35.53-3.21-6.58-4.82-9.85-8.04-16.36,2.86-4.19,4.3-6.29,7.16-10.51-2.83-3.56-4.25-5.33-7.09-8.86-2.22,3.31-3.33,4.97-5.55,8.26-1.84-3.71-2.76-5.56-4.6-9.25,2.19-2.74,3.29-4.11,5.48-6.86.85-2.1,1.27-3.16,2.12-5.27,0-4.06,0-6.09,0-10.15-1.72-4.18-2.59-6.26-4.31-10.42h-9.78c-2.55,3.22-5.15,5.93-7.92,8.25ZM272.68,58.73c.38-.77.57-1.15.95-1.92.56,0,.83,0,1.39,0,.32.77.48,1.16.8,1.94,0,2.28,0,3.42,0,5.7-.67,1.19-1.01,1.78-1.68,2.96-.58-1.2-.88-1.8-1.46-2.99,0-2.28,0-3.42,0-5.69ZM271.14,90.14c.41-1.29.61-1.93,1.02-3.22,1.87,3.89,2.81,5.85,4.68,9.76-1.26,1.86-1.88,2.79-3.14,4.65-.67-.02-1.01-.03-1.68-.05-.35-.99-.53-1.49-.88-2.48,0-3.47,0-5.2,0-8.67Z"/>
      <path class="st3" d="M330.77,66.39c-.35-.95-.53-1.43-.88-2.38,0-1.78,0-2.68,0-4.46.35-.91.53-1.36.88-2.27,4.68.05,7.01.07,11.69.12,3.74,2.39,5.61,3.59,9.35,6.02,0-7.52,0-11.27,0-18.79h-29.3c-1.78,4.31-2.67,6.45-4.46,10.73,0,6.49,0,9.74,0,16.23,1.75,4.22,2.63,6.34,4.38,10.58,7.22,3.28,10.83,4.94,18.05,8.32.38.97.57,1.45.95,2.42,0,3.34,0,5.01,0,8.35-.38.94-.57,1.41-.95,2.34-5.26-.24-7.89-.36-13.15-.6-3.71-2.53-5.57-3.78-9.28-6.27,0,7.32,0,10.98,0,18.31,12.33.64,18.5.99,30.83,1.69,1.75-4.29,2.63-6.45,4.38-10.78,0-8.23,0-12.34,0-20.57-1.72-4.32-2.59-6.47-4.31-10.76-7.28-3.35-10.91-5-18.19-8.25Z"/>
      <path class="st3" d="M363.29,44.63c-1.78,4.45-2.67,6.66-4.46,11.08,0,16.88,0,33.76,0,50.64,1.78,4.48,2.67,6.73,4.46,11.24,12.13.7,18.19,1.06,30.32,1.75,1.75-4.42,2.63-6.63,4.38-11.08,0-17.44,0-34.87,0-52.31-1.75-4.54-2.63-6.81-4.38-11.32h-30.32ZM383.89,103.49c-.29.86-.44,1.29-.73,2.15-3.74-.18-5.61-.27-9.35-.45-.32-.88-.48-1.32-.8-2.2,0-14.31,0-28.62,0-42.93.35-.94.53-1.41.88-2.34,3.62.04,5.44.06,9.06.09.38.95.57,1.43.95,2.38,0,14.43,0,28.86,0,43.3Z"/>
      <path class="st3" d="M434.75,57.13c0,10.44,0,15.65,0,26.09-5.31-12.88-10.67-25.75-16.07-38.59h-15.12c1.84,4.89,2.76,7.35,4.6,12.28v51.06c-1.84,4.79-2.76,7.17-4.61,11.93,8.07.45,12.1.66,20.17,1.08-1.87-5.02-2.81-7.52-4.68-12.52,0-9.82,0-14.73,0-24.56,5.45,12.53,10.86,25.08,16.22,37.64,4.18.2,6.27.3,10.45.48,0-21.63,0-43.27,0-64.9,1.87-4.98,2.81-7.48,4.68-12.48h-20.24c1.84,4.99,2.76,7.49,4.6,12.5Z"/>
      <path class="st3" d="M485.17,77.41c-7.28-3.55-10.91-5.32-18.19-8.85-.35-1.05-.53-1.57-.88-2.61v-4.91c.35-1,.53-1.5.88-2.5,4.68.03,7.01.04,11.69.07,3.74,2.6,5.61,3.9,9.35,6.51v-20.5h-29.3c-1.78,4.75-2.67,7.12-4.46,11.85,0,7.17,0,10.75,0,17.92,1.75,4.65,2.63,6.98,4.38,11.64,7.22,3.54,10.83,5.32,18.04,8.88.38,1.05.57,1.58.95,2.64v9.16c-.38,1.04-.57,1.56-.95,2.59-5.26-.13-7.89-.2-13.15-.36-3.71-2.71-5.57-4.07-9.28-6.77,0,8.08,0,12.13,0,20.21,12.33.5,18.5.72,30.83,1.04,1.75-4.76,2.63-7.14,4.38-11.91v-22.43c-1.72-4.67-2.59-7-4.31-11.66Z"/>
    </g>
    <path class="st1" d="M207.89,48.39c-.24-.22-.36-.27-.4-.37-1.81-4.26-1.85-8.48.22-12.69,1.18-2.4,2.6-4.65,4.04-6.9,2.25-3.52,4.41-7.1,6.68-10.61,1.1-1.7,2.38-3.28,3.57-4.92.11-.15.2-.3.18-.64-1.26.46-2.53.88-3.77,1.39-3.25,1.33-6.38,2.92-9.17,5.06-1.51,1.16-2.92,2.45-4.34,3.71-.78.69-1.23.85-1.89.5-.6-.32-.99-1.18-.91-1.93.15-1.46.95-2.6,1.86-3.66,1.65-1.92,3.57-3.53,5.76-4.79,4.6-2.65,9.36-4.98,14.57-6.15,2.48-.56,5.01-.84,7.52-1.26.27-.04.53-.15.79-.19.3-.04.61-.1.9-.06.81.14,1.62.35,2.43.49,2.41.41,4.79.9,6.76,2.46.68.54,1.31,1.17,1.85,1.85,1.94,2.45,1.31,5.38-.39,7.6-1.32,1.72-2.99,3.06-4.87,4.17-4.05,2.4-8.2,4.59-12.53,6.42-1.57.66-3.2,1.2-4.9,1.83.34.79.7,1.53.99,2.29.18.48.31.98.37,1.49.23,1.68.82,3.24,1.64,4.71.73,1.31,2.22,1.84,3.74,1.14,1.35-.63,2.61-1.5,3.81-2.41.95-.71,1.76-1.61,2.59-2.47.22-.23.37-.61.39-.93.17-2.6,1.05-4.96,2.35-7.2,2.03-3.48,4.62-6.47,7.78-8.97,1.71-1.35,3.66-1.89,5.83-2.1,2.15-.21,2.75.48,3.28,2.37.02.07.11.11.13.14.99-.59,1.98-1.18,2.97-1.75.48-.28.98-.35,1.45.02.51.4.35.92.22,1.42-.39,1.58-1.22,2.93-2.14,4.24-1.59,2.24-3.35,4.37-4.49,6.89-.62,1.37-1.04,2.83-1.54,4.25-.06.17,0,.38,0,.68.29-.02.56,0,.8-.06,2.16-.58,3.94-1.88,5.73-3.13.33-.23.61-.51.94-.73.58-.39.9-.89,1.11-1.59.37-1.2.93-2.33,1.65-3.4,1.87-2.78,3.81-5.49,6.13-7.93.71-.75,1.46-1.47,2.23-2.15.9-.79,1.67-.57,2.13.53.32.76.23,1.5-.13,2.19-.53,1.02-1.05,2.06-1.7,3.01-1.81,2.67-3.69,5.29-5.53,7.93-.4.58-.74,1.2-1.1,1.81.05.07.11.14.16.21.3-.12.62-.2.9-.35,2.99-1.53,5.73-3.42,8.26-5.64,2.28-1.99,4.65-3.87,6.95-5.84.78-.67,1.42-1.49,2.18-2.18.67-.61,1.39-1.19,2.17-1.65.96-.56,2.05-.28,2.64.52.67.92.62,1.95-.1,2.85-1.89,2.36-3.77,4.73-5.65,7.11-.24.3-.43.65-.76,1.15,1.36-.22,2.51-.42,3.67-.59,3.32-.48,6.65-.67,10-.62,1.07.02,2.07.3,2.96,1.09-.8.05-1.61.12-2.41.16-5.52.28-10.91,1.19-16.05,3.32-.58.24-1.01.59-1.37,1.09-2.15,3.02-4.25,6.07-6.48,9.02-2.47,3.28-5.21,6.33-8.37,8.98-1.25,1.05-2.65,1.77-4.3,1.88-2,.13-3.64-.73-4.68-2.33-1.01-1.54-.59-3.22.36-4.73.94-1.5,2.25-2.67,3.56-3.84,4.16-3.73,8.91-6.53,13.93-8.93.04-.02.07-.04.11-.05,1.26-.44,2.2-1.14,2.98-2.34,1.36-2.09,3.05-3.97,4.6-5.93.1-.12.18-.25.16-.52-.34.27-.68.53-1.02.8-2.89,2.25-5.75,4.53-8.68,6.72-1.56,1.16-3.24,2.17-4.87,3.23-.23.15-.49.26-.75.37-1.82.75-2.77.19-3.8-.99-.17-.2-.3-.44-.49-.71-.85.68-1.63,1.35-2.46,1.97-1.37,1.03-2.77,2.01-4.4,2.6-2.43.88-4.36-.22-4.66-2.8-.13-1.09.01-2.21.03-3.42-.36.4-.73.78-1.06,1.18-1.52,1.84-3.08,3.66-4.98,5.13-.75.57-1.6,1.05-2.47,1.42-1.54.65-2.56.23-3.35-1.23-.17-.31-.3-.64-.52-1.11-.47.51-.89.91-1.26,1.36-1.25,1.55-2.46,3.15-4.1,4.31-1.1.78-2.26,1.49-3.48,2.05-1.25.58-2.56.45-3.78-.27-1.09-.64-2.01-1.49-2.53-2.63-.71-1.55-1.36-3.14-1.9-4.75-.5-1.5-.82-3.07-1.24-4.61-.06-.21-.18-.4-.34-.75-.46.61-.87,1.09-1.19,1.62-2.23,3.62-4.46,7.25-6.66,10.89-.35.57-.57,1.23-.85,1.84-.43.93-.58,1.88-.28,2.9.11.39.07.83.11,1.42ZM220.27,25.12c.77-.17,1.28-.21,1.74-.39,3.21-1.29,6.41-2.58,9.59-3.93,3.2-1.36,6.08-3.29,8.9-5.3,1.99-1.42,1.73-3.58-.5-4.54-.07-.03-.15-.06-.22-.09-1.94-.79-3.97-1.11-6.06-1.05-2.04.05-4,.5-5.9,1.08-.29,2.85-.31,3.18-1.53,5.16-1.59,2.57-3.3,5.06-4.96,7.58-.28.42-.59.82-1.05,1.48ZM270.64,33.49c-.08-.08-.15-.15-.23-.23-1.15.61-2.31,1.19-3.44,1.83-3.69,2.07-7.2,4.39-10.05,7.58-.6.67-1.06,1.48-1.52,2.27-.26.44-.45,1.04-.03,1.45.44.44.99.84,1.71.63.53-.16,1.08-.29,1.58-.53,2.42-1.15,4.35-2.91,5.99-5,.84-1.06,1.72-2.09,2.53-3.17,1.18-1.59,2.31-3.21,3.47-4.82ZM240.17,33.56c.6-.33,1.06-.52,1.45-.81.95-.71,1.91-1.42,2.78-2.22,1.08-.99,2.09-2.07,3.13-3.11.36-.36.96-.67,1.04-1.08.19-.98.91-1.58,1.46-2.24,1.15-1.37,1.71-2.93,1.91-4.65.05-.43-.14-.89-.21-1.31-1.28.05-1.29.03-2.22.91-3.32,3.19-5.98,6.89-8.19,10.92-.56,1.02-1.04,2.12-1.14,3.58Z"/>
    <polygon class="st3" points="184.32 27.82 8.38 23.35 184.32 18.88 184.32 27.82"/>
    <polygon class="st3" points="311.56 27.82 487.5 23.35 311.56 18.88 311.56 27.82"/>
  </g>
</svg>