<?xml version="1.0" encoding="UTF-8"?>
<svg id="Layer_1" xmlns="http://www.w3.org/2000/svg" version="1.1" viewBox="0 0 498.75 181.52">
  <!-- Generator: Adobe Illustrator 30.0.0, SVG Export Plug-In . SVG Version: 2.1.1 Build 123)  -->
  <defs>
    <style>
      .st0 {
        fill: none;
      }

      .st1 {
        fill: #f5821f;
      }

      .st2 {
        fill: #231f20;
      }

      .st3 {
        fill: #fff;
      }
    </style>
  </defs>
  <polygon class="st2" points="1463.24 -582.82 1630.68 -578.82 1463.24 -574.82 1463.24 -582.82"/>
  <g>
    <g>
      <path class="st0" d="M373.89,70.74c-.35.94-.53,1.41-.88,2.34,0,14.31,0,28.62,0,42.93.32.88.48,1.32.8,2.2,3.74.18,5.61.27,9.35.45.29-.86.44-1.29.73-2.15,0-14.43,0-28.86,0-43.3-.38-.95-.57-1.43-.95-2.38-3.62-.04-5.44-.06-9.06-.09Z"/>
      <path class="st0" d="M158.54,103.5c2.51-.09,3.77-.13,6.28-.22-1.23-5.87-1.84-8.81-3.07-14.71-1.29,5.96-1.93,8.95-3.21,14.93Z"/>
      <path class="st0" d="M275.82,77.47c0-2.28,0-3.42,0-5.7-.32-.77-.48-1.16-.8-1.94-.56,0-.83,0-1.39,0-.38.77-.57,1.15-.95,1.92,0,2.28,0,3.42,0,5.69.58,1.2.88,1.8,1.46,2.99.67-1.18,1.01-1.78,1.68-2.96Z"/>
      <path class="st0" d="M66.77,106.78c2.51-.08,3.77-.12,6.28-.2-1.23-6.3-1.84-9.46-3.07-15.79-1.29,6.38-1.93,9.58-3.21,15.99Z"/>
      <path class="st0" d="M273.7,114.35c1.26-1.86,1.88-2.78,3.14-4.65-1.87-3.92-2.81-5.87-4.68-9.76-.41,1.29-.61,1.93-1.02,3.22,0,3.47,0,5.2,0,8.67.35.99.53,1.48.88,2.48.67.02,1.01.03,1.68.05Z"/>
      <path class="st3" d="M40.02,90.07c-7.28-3.31-10.91-5-18.19-8.39-.35-1.04-.53-1.56-.88-2.61,0-1.97,0-2.96,0-4.93.35-1.01.53-1.51.88-2.52,4.68-.03,7.01-.04,11.69-.07,3.74,2.54,5.61,3.8,9.35,6.31,0-8.09,0-12.14,0-20.23H13.57c-1.78,4.8-2.67,7.21-4.46,12.02v18.19c1.75,4.67,2.63,7,4.38,11.66,7.22,3.33,10.83,4.98,18.04,8.22.38,1.03.57,1.55.95,2.58,0,3.64,0,5.47,0,9.11-.38,1.05-.57,1.58-.95,2.63-5.26.15-7.89.22-13.15.34-3.71-2.53-5.57-3.81-9.28-6.37v20.51c12.33-.29,18.5-.49,30.83-.97,1.75-4.82,2.63-7.22,4.38-12.02,0-8.84,0-13.26,0-22.1-1.72-4.54-2.59-6.82-4.31-11.38Z"/>
      <path class="st3" d="M77.72,57.64h-17.46c1.43,5.13,2.15,7.69,3.58,12.8-3.75,17.53-7.47,35.07-11.18,52.61-2.19,4.88-3.29,7.32-5.48,12.23,8.07-.34,12.1-.52,20.16-.92-1.49-4.68-2.24-7.03-3.73-11.73.15-.75.22-1.13.37-1.89,4.7-.18,7.06-.28,11.76-.48.12.58.18.87.29,1.45-1.4,4.94-2.1,7.42-3.51,12.39,9.35-.47,14.03-.72,23.38-1.24-2.25-4.69-3.38-7.05-5.63-11.78-4.22-21.14-8.41-42.29-12.57-63.44ZM66.77,106.78c1.29-6.41,1.93-9.61,3.21-15.99,1.23,6.33,1.84,9.49,3.07,15.79-2.51.08-3.77.12-6.28.2Z"/>
      <path class="st3" d="M132.24,104.65c1.84-4.79,2.76-7.17,4.6-11.93-8.39.23-12.58.35-20.97.59,1.84,4.77,2.76,7.14,4.6,11.87,0,3.74,0,5.61,0,9.36.61,1.52.92,2.28,1.54,3.8-3.74.18-5.61.27-9.35.45-.32-.86-.48-1.29-.8-2.15,0-14.46,0-28.93,0-43.39.35-.96.53-1.43.88-2.39,4.41-.05,6.62-.07,11.03-.11,3.71,2.38,5.57,3.55,9.28,5.89,0-7.6,0-11.4,0-19h-30.83c-1.78,4.56-2.67,6.85-4.46,11.44,0,17.44,0,34.88,0,52.32,1.78,4.46,2.67,6.67,4.46,11.1,11.54-.65,23.09-1.33,34.63-2-1.84-4.59-2.76-6.9-4.6-11.53,0-5.73,0-8.6,0-14.33Z"/>
      <path class="st3" d="M169.5,57.64h-17.46c1.43,4.79,2.15,7.18,3.58,11.95-3.75,16.41-7.47,32.83-11.18,49.26-2.19,4.6-3.29,6.9-5.48,11.54,8.07-.47,12.1-.7,20.17-1.15-1.49-4.35-2.24-6.54-3.73-10.91.15-.71.22-1.06.36-1.76,4.71-.22,7.06-.33,11.76-.54.12.54.18.81.29,1.35-1.4,4.62-2.1,6.93-3.51,11.57,9.35-.52,14.03-.77,23.38-1.23-2.25-4.37-3.38-6.57-5.63-10.97-4.22-19.69-8.41-39.39-12.57-59.09ZM158.54,103.5c1.29-5.99,1.93-8.98,3.21-14.93,1.23,5.9,1.84,8.84,3.07,14.71-2.51.09-3.77.13-6.28.22Z"/>
      <path class="st3" d="M228.21,60.52c-2.37,1.1-5.08.94-7.42-.45-1.15-.68-2.08-1.5-2.84-2.42h-.8c1.84,4.47,2.76,6.7,4.6,11.15,0,9.31,0,13.96,0,23.27-3.69-7.85-7.35-15.71-11.01-23.57-.11-.02-.2-.03-.32-.06-4.02-1.07-6.28-3.71-6.53-4.61,0-.01-.01-.02-.02-.03-.87-2.06-1.4-4.11-1.58-6.14h-11.75c1.84,4.55,2.76,6.81,4.6,11.33,0,15.71,0,31.42,0,47.13-1.84,4.57-2.76,6.86-4.6,11.47,8.07-.4,12.1-.58,20.16-.92-1.87-4.37-2.81-6.57-4.68-10.96,0-8.93,0-13.4,0-22.33,5.38,10.96,10.79,21.9,16.22,32.84,4.18-.16,6.27-.23,10.45-.36,0-19.06,0-38.12,0-57.18,1.87-4.41,2.81-6.61,4.68-11h-4.47c-.2.16-.4.32-.61.47-1.41,1-2.75,1.78-4.09,2.41Z"/>
      <path class="st3" d="M264.7,65.9c-.94.79-1.93,1.41-2.95,1.87-.04.09-.07.16-.11.25,0,4.04,0,6.07,0,10.11,2.02,4.13,3.02,6.2,5.04,10.35-2.31,2.45-3.46,3.67-5.77,6.1-1.52,3.84-2.28,5.76-3.8,9.59,0,4.45,0,6.68,0,11.13,1.72,4.15,2.59,6.22,4.31,10.39,6.78.2,10.17.32,16.95.58,1.52-2.19,2.28-3.29,3.8-5.49,1.08,2.29,1.62,3.44,2.7,5.74,4.94.2,7.41.31,12.35.53-3.21-6.58-4.82-9.85-8.04-16.36,2.86-4.19,4.3-6.29,7.16-10.51-2.83-3.56-4.25-5.33-7.09-8.86-2.22,3.31-3.33,4.97-5.55,8.26-1.84-3.71-2.76-5.56-4.6-9.25,2.19-2.74,3.29-4.11,5.48-6.86.85-2.1,1.27-3.16,2.12-5.27,0-4.06,0-6.09,0-10.15-1.72-4.18-2.59-6.26-4.31-10.42h-9.78c-2.55,3.22-5.15,5.93-7.92,8.25ZM272.68,71.75c.38-.77.57-1.15.95-1.92.56,0,.83,0,1.39,0,.32.77.48,1.16.8,1.94,0,2.28,0,3.42,0,5.7-.67,1.19-1.01,1.78-1.68,2.96-.58-1.2-.88-1.8-1.46-2.99,0-2.28,0-3.42,0-5.69ZM271.14,103.16c.41-1.29.61-1.93,1.02-3.22,1.87,3.89,2.81,5.85,4.68,9.76-1.26,1.86-1.88,2.79-3.14,4.65-.67-.02-1.01-.03-1.68-.05-.35-.99-.53-1.49-.88-2.48,0-3.47,0-5.2,0-8.67Z"/>
      <path class="st3" d="M330.77,79.41c-.35-.95-.53-1.43-.88-2.38,0-1.78,0-2.68,0-4.46.35-.91.53-1.36.88-2.27,4.68.05,7.01.07,11.69.12,3.74,2.39,5.61,3.59,9.35,6.02,0-7.52,0-11.27,0-18.79h-29.3c-1.78,4.31-2.67,6.45-4.46,10.73,0,6.49,0,9.74,0,16.23,1.75,4.22,2.63,6.34,4.38,10.58,7.22,3.28,10.83,4.94,18.05,8.32.38.97.57,1.45.95,2.42,0,3.34,0,5.01,0,8.35-.38.94-.57,1.41-.95,2.34-5.26-.24-7.89-.36-13.15-.6-3.71-2.53-5.57-3.78-9.28-6.27,0,7.32,0,10.98,0,18.31,12.33.64,18.5.99,30.83,1.69,1.75-4.29,2.63-6.45,4.38-10.78,0-8.23,0-12.34,0-20.57-1.72-4.32-2.59-6.47-4.31-10.76-7.28-3.35-10.91-5-18.19-8.25Z"/>
      <path class="st3" d="M363.29,57.64c-1.78,4.45-2.67,6.66-4.46,11.08,0,16.88,0,33.76,0,50.64,1.78,4.48,2.67,6.73,4.46,11.24,12.13.7,18.19,1.06,30.32,1.75,1.75-4.42,2.63-6.63,4.38-11.08,0-17.44,0-34.87,0-52.31-1.75-4.54-2.63-6.81-4.38-11.32h-30.32ZM383.89,116.51c-.29.86-.44,1.29-.73,2.15-3.74-.18-5.61-.27-9.35-.45-.32-.88-.48-1.32-.8-2.2,0-14.31,0-28.62,0-42.93.35-.94.53-1.41.88-2.34,3.62.04,5.44.06,9.06.09.38.95.57,1.43.95,2.38,0,14.43,0,28.86,0,43.3Z"/>
      <path class="st3" d="M434.75,70.15c0,10.44,0,15.65,0,26.09-5.31-12.88-10.67-25.75-16.07-38.59h-15.12c1.84,4.89,2.76,7.35,4.6,12.28v51.06c-1.84,4.79-2.76,7.17-4.61,11.93,8.07.45,12.1.66,20.17,1.08-1.87-5.02-2.81-7.52-4.68-12.52,0-9.82,0-14.73,0-24.56,5.45,12.53,10.86,25.08,16.22,37.64,4.18.2,6.27.3,10.45.48,0-21.63,0-43.27,0-64.9,1.87-4.98,2.81-7.48,4.68-12.48h-20.24c1.84,4.99,2.76,7.49,4.6,12.5Z"/>
      <path class="st3" d="M485.17,90.43c-7.28-3.55-10.91-5.32-18.19-8.85-.35-1.05-.53-1.57-.88-2.61v-4.91c.35-1,.53-1.5.88-2.5,4.68.03,7.01.04,11.69.07,3.74,2.6,5.61,3.9,9.35,6.51v-20.5h-29.3c-1.78,4.75-2.67,7.12-4.46,11.85,0,7.17,0,10.75,0,17.92,1.75,4.65,2.63,6.98,4.38,11.64,7.22,3.54,10.83,5.32,18.04,8.88.38,1.05.57,1.58.95,2.64v9.16c-.38,1.04-.57,1.56-.95,2.59-5.26-.13-7.89-.2-13.15-.36-3.71-2.71-5.57-4.07-9.28-6.77,0,8.08,0,12.13,0,20.21,12.33.5,18.5.72,30.83,1.04,1.75-4.76,2.63-7.14,4.38-11.91v-22.43c-1.72-4.67-2.59-7-4.31-11.66Z"/>
    </g>
    <path class="st1" d="M207.89,61.41c-.24-.22-.36-.27-.4-.37-1.81-4.26-1.85-8.48.22-12.69,1.18-2.4,2.6-4.65,4.04-6.9,2.25-3.52,4.41-7.1,6.68-10.61,1.1-1.7,2.38-3.28,3.57-4.92.11-.15.2-.3.18-.64-1.26.46-2.53.88-3.77,1.39-3.25,1.33-6.38,2.92-9.17,5.06-1.51,1.16-2.92,2.45-4.34,3.71-.78.69-1.23.85-1.89.5-.6-.32-.99-1.18-.91-1.93.15-1.46.95-2.6,1.86-3.66,1.65-1.92,3.57-3.53,5.76-4.79,4.6-2.65,9.36-4.98,14.57-6.15,2.48-.56,5.01-.84,7.52-1.26.27-.04.53-.15.79-.19.3-.04.61-.1.9-.06.81.14,1.62.35,2.43.49,2.41.41,4.79.9,6.76,2.46.68.54,1.31,1.17,1.85,1.85,1.94,2.45,1.31,5.38-.39,7.6-1.32,1.72-2.99,3.06-4.87,4.17-4.05,2.4-8.2,4.59-12.53,6.42-1.57.66-3.2,1.2-4.9,1.83.34.79.7,1.53.99,2.29.18.48.31.98.37,1.49.23,1.68.82,3.24,1.64,4.71.73,1.31,2.22,1.84,3.74,1.14,1.35-.63,2.61-1.5,3.81-2.41.95-.71,1.76-1.61,2.59-2.47.22-.23.37-.61.39-.93.17-2.6,1.05-4.96,2.35-7.2,2.03-3.48,4.62-6.47,7.78-8.97,1.71-1.35,3.66-1.89,5.83-2.1,2.15-.21,2.75.48,3.28,2.37.02.07.11.11.13.14.99-.59,1.98-1.18,2.97-1.75.48-.28.98-.35,1.45.02.51.4.35.92.22,1.42-.39,1.58-1.22,2.93-2.14,4.24-1.59,2.24-3.35,4.37-4.49,6.89-.62,1.37-1.04,2.83-1.54,4.25-.06.17,0,.38,0,.68.29-.02.56,0,.8-.06,2.16-.58,3.94-1.88,5.73-3.13.33-.23.61-.51.94-.73.58-.39.9-.89,1.11-1.59.37-1.2.93-2.33,1.65-3.4,1.87-2.78,3.81-5.49,6.13-7.93.71-.75,1.46-1.47,2.23-2.15.9-.79,1.67-.57,2.13.53.32.76.23,1.5-.13,2.19-.53,1.02-1.05,2.06-1.7,3.01-1.81,2.67-3.69,5.29-5.53,7.93-.4.58-.74,1.2-1.1,1.81.05.07.11.14.16.21.3-.12.62-.2.9-.35,2.99-1.53,5.73-3.42,8.26-5.64,2.28-1.99,4.65-3.87,6.95-5.84.78-.67,1.42-1.49,2.18-2.18.67-.61,1.39-1.19,2.17-1.65.96-.56,2.05-.28,2.64.52.67.92.62,1.95-.1,2.85-1.89,2.36-3.77,4.73-5.65,7.11-.24.3-.43.65-.76,1.15,1.36-.22,2.51-.42,3.67-.59,3.32-.48,6.65-.67,10-.62,1.07.02,2.07.3,2.96,1.09-.8.05-1.61.12-2.41.16-5.52.28-10.91,1.19-16.05,3.32-.58.24-1.01.59-1.37,1.09-2.15,3.02-4.25,6.07-6.48,9.02-2.47,3.28-5.21,6.33-8.37,8.98-1.25,1.05-2.65,1.77-4.3,1.88-2,.13-3.64-.73-4.68-2.33-1.01-1.54-.59-3.22.36-4.73.94-1.5,2.25-2.67,3.56-3.84,4.16-3.73,8.91-6.53,13.93-8.93.04-.02.07-.04.11-.05,1.26-.44,2.2-1.14,2.98-2.34,1.36-2.09,3.05-3.97,4.6-5.93.1-.12.18-.25.16-.52-.34.27-.68.53-1.02.8-2.89,2.25-5.75,4.53-8.68,6.72-1.56,1.16-3.24,2.17-4.87,3.23-.23.15-.49.26-.75.37-1.82.75-2.77.19-3.8-.99-.17-.2-.3-.44-.49-.71-.85.68-1.63,1.35-2.46,1.97-1.37,1.03-2.77,2.01-4.4,2.6-2.43.88-4.36-.22-4.66-2.8-.13-1.09.01-2.21.03-3.42-.36.4-.73.78-1.06,1.18-1.52,1.84-3.08,3.66-4.98,5.13-.75.57-1.6,1.05-2.47,1.42-1.54.65-2.56.23-3.35-1.23-.17-.31-.3-.64-.52-1.11-.47.51-.89.91-1.26,1.36-1.25,1.55-2.46,3.15-4.1,4.31-1.1.78-2.26,1.49-3.48,2.05-1.25.58-2.56.45-3.78-.27-1.09-.64-2.01-1.49-2.53-2.63-.71-1.55-1.36-3.14-1.9-4.75-.5-1.5-.82-3.07-1.24-4.61-.06-.21-.18-.4-.34-.75-.46.61-.87,1.09-1.19,1.62-2.23,3.62-4.46,7.25-6.66,10.89-.35.57-.57,1.23-.85,1.84-.43.93-.58,1.88-.28,2.9.11.39.07.83.11,1.42ZM220.27,38.14c.77-.17,1.28-.21,1.74-.39,3.21-1.29,6.41-2.58,9.59-3.93,3.2-1.36,6.08-3.29,8.9-5.3,1.99-1.42,1.73-3.58-.5-4.54-.07-.03-.15-.06-.22-.09-1.94-.79-3.97-1.11-6.06-1.05-2.04.05-4,.5-5.9,1.08-.29,2.85-.31,3.18-1.53,5.16-1.59,2.57-3.3,5.06-4.96,7.58-.28.42-.59.82-1.05,1.48ZM270.64,46.51c-.08-.08-.15-.15-.23-.23-1.15.61-2.31,1.19-3.44,1.83-3.69,2.07-7.2,4.39-10.05,7.58-.6.67-1.06,1.48-1.52,2.27-.26.44-.45,1.04-.03,1.45.44.44.99.84,1.71.63.53-.16,1.08-.29,1.58-.53,2.42-1.15,4.35-2.91,5.99-5,.84-1.06,1.72-2.09,2.53-3.17,1.18-1.59,2.31-3.21,3.47-4.82ZM240.17,46.58c.6-.33,1.06-.52,1.45-.81.95-.71,1.91-1.42,2.78-2.22,1.08-.99,2.09-2.07,3.13-3.11.36-.36.96-.67,1.04-1.08.19-.98.91-1.58,1.46-2.24,1.15-1.37,1.71-2.93,1.91-4.65.05-.43-.14-.89-.21-1.31-1.28.05-1.29.03-2.22.91-3.32,3.19-5.98,6.89-8.19,10.92-.56,1.02-1.04,2.12-1.14,3.58Z"/>
  </g>
  <g>
    <path class="st1" d="M14.75,173.59c-.78,0-1.54-.08-2.26-.23-.72-.15-1.36-.4-1.92-.75-.56-.34-1-.79-1.33-1.33-.33-.55-.49-1.22-.49-2.02,0-.07,0-.14.01-.21,0-.07.01-.14.01-.21h2.02s0,.11-.01.2c0,.09-.01.17-.01.24,0,.56.17,1.04.5,1.43.34.39.8.68,1.4.87.6.19,1.27.28,2.03.28.34,0,.69-.02,1.06-.06.37-.04.73-.12,1.07-.22.34-.1.65-.24.92-.42.27-.17.49-.39.65-.65.16-.26.24-.58.24-.96,0-.48-.14-.87-.41-1.19-.27-.31-.63-.57-1.08-.78-.45-.2-.96-.38-1.52-.55-.57-.16-1.15-.32-1.75-.47s-1.19-.33-1.75-.54c-.57-.2-1.07-.45-1.52-.76-.45-.3-.81-.67-1.08-1.12s-.41-.99-.41-1.64c0-.6.12-1.14.37-1.62.25-.48.61-.88,1.09-1.21.48-.33,1.08-.58,1.8-.76s1.53-.26,2.46-.26c.76,0,1.46.08,2.11.24.65.16,1.23.41,1.72.73.5.33.89.75,1.17,1.25.28.5.42,1.11.42,1.83v.25h-1.97v-.32c0-.48-.15-.88-.44-1.22s-.7-.59-1.21-.78c-.51-.18-1.09-.27-1.73-.27-.84,0-1.54.08-2.1.24-.56.16-.98.39-1.25.69-.27.3-.41.64-.41,1.02,0,.43.14.8.41,1.09s.63.54,1.08.72c.45.19.96.36,1.53.51.57.15,1.16.31,1.75.47.59.16,1.18.34,1.74.55.57.2,1.08.46,1.53.76.45.3.82.68,1.08,1.13.27.46.4,1.01.4,1.67,0,1.02-.25,1.85-.76,2.49-.5.64-1.2,1.1-2.08,1.4-.88.29-1.9.44-3.07.44Z"/>
    <path class="st1" d="M25.02,173.34v-14.41h11.09v1.72h-9.09v4.45h8.17v1.72h-8.17v4.79h9.22v1.72h-11.21Z"/>
    <path class="st1" d="M40.67,173.34v-14.41h7.58c.98,0,1.8.18,2.45.54.65.36,1.14.85,1.46,1.49.32.64.48,1.37.48,2.2,0,.99-.22,1.85-.67,2.56-.45.71-1.06,1.23-1.85,1.53l3.02,6.09h-2.18l-2.81-5.73h-5.48v5.73h-1.99ZM42.66,165.91h5.4c.8,0,1.42-.25,1.88-.74.45-.49.68-1.16.68-2.02,0-.53-.1-.98-.29-1.34-.2-.36-.48-.65-.86-.85-.38-.2-.85-.3-1.41-.3h-5.4v5.25Z"/>
    <path class="st1" d="M60.93,173.34l-5.38-14.41h2.16l3.7,10.21c.08.2.17.42.25.67s.17.5.25.74c.08.24.16.45.23.63h.13c.06-.17.13-.37.21-.61.08-.24.17-.48.25-.72s.17-.48.25-.7l3.65-10.21h2.1l-5.4,14.41h-2.42Z"/>
    <path class="st1" d="M72.19,173.34v-14.41h1.99v14.41h-1.99Z"/>
    <path class="st1" d="M79.22,173.34v-14.41h1.93l6.99,9.49c.07.08.16.21.27.38.11.17.22.33.34.49.11.16.2.3.27.43h.08v-10.79h1.95v14.41h-1.83l-7.08-9.66c-.1-.15-.24-.37-.43-.65-.19-.28-.35-.5-.47-.67h-.1v10.98h-1.93Z"/>
    <path class="st1" d="M102.59,173.59c-2.32,0-4.09-.61-5.3-1.83-1.21-1.22-1.82-3.09-1.82-5.63,0-1.65.28-3.03.84-4.14.56-1.11,1.39-1.94,2.48-2.49,1.09-.55,2.42-.83,3.99-.83.98,0,1.87.11,2.67.32.8.21,1.49.53,2.07.96.58.43,1.03.96,1.34,1.61.31.64.47,1.41.47,2.29h-2.04c0-.62-.11-1.14-.34-1.58-.22-.44-.54-.8-.96-1.08-.41-.28-.89-.48-1.44-.6-.55-.12-1.13-.18-1.74-.18-.84,0-1.59.1-2.25.31s-1.21.54-1.66.99c-.45.45-.79,1.02-1.03,1.72s-.36,1.53-.36,2.5v.44c0,1.3.2,2.36.6,3.17s.98,1.4,1.73,1.77,1.67.56,2.73.56,1.97-.15,2.67-.45c.7-.3,1.22-.76,1.56-1.38s.51-1.39.51-2.33v-.25h-5.08v-1.7h7.1v7.58h-1.51l-.21-1.83c-.38.49-.83.89-1.34,1.2-.52.31-1.09.53-1.71.67s-1.28.21-1.98.21Z"/>
    <path class="st1" d="M120.07,173.34v-14.41h1.93l6.99,9.49c.07.08.16.21.27.38.11.17.22.33.34.49.11.16.2.3.27.43h.08v-10.79h1.95v14.41h-1.83l-7.08-9.66c-.1-.15-.24-.37-.43-.65-.19-.28-.35-.5-.47-.67h-.1v10.98h-1.93Z"/>
    <path class="st1" d="M143.42,173.59c-1.5,0-2.78-.27-3.85-.82-1.07-.55-1.9-1.37-2.48-2.48-.58-1.11-.87-2.49-.87-4.16s.29-3.07.87-4.17c.58-1.1,1.41-1.92,2.48-2.47,1.07-.55,2.36-.82,3.85-.82s2.78.27,3.85.82c1.07.55,1.9,1.37,2.48,2.47.58,1.1.87,2.49.87,4.17s-.29,3.05-.87,4.16c-.58,1.11-1.41,1.93-2.48,2.48-1.07.55-2.36.82-3.85.82ZM143.42,171.87c.78,0,1.49-.11,2.13-.32s1.18-.54,1.62-1,.78-1.03,1.02-1.72c.24-.69.36-1.51.36-2.47v-.44c0-.97-.12-1.8-.36-2.49-.24-.69-.58-1.27-1.02-1.72s-.98-.79-1.62-1-1.35-.31-2.13-.31-1.51.1-2.14.31c-.63.21-1.17.54-1.62,1-.45.46-.79,1.03-1.02,1.72-.23.69-.35,1.52-.35,2.49v.44c0,.95.12,1.77.35,2.47.23.69.57,1.27,1.02,1.72.45.46.99.79,1.62,1,.63.21,1.34.32,2.14.32Z"/>
    <path class="st1" d="M154.93,173.34v-14.41h7.58c.98,0,1.8.18,2.45.54.65.36,1.14.85,1.46,1.49.32.64.48,1.37.48,2.2,0,.99-.22,1.85-.67,2.56-.45.71-1.06,1.23-1.85,1.53l3.02,6.09h-2.18l-2.81-5.73h-5.48v5.73h-1.99ZM156.92,165.91h5.4c.8,0,1.42-.25,1.88-.74.45-.49.68-1.16.68-2.02,0-.53-.1-.98-.29-1.34-.2-.36-.48-.65-.86-.85-.38-.2-.85-.3-1.41-.3h-5.4v5.25Z"/>
    <path class="st1" d="M174.62,173.34v-12.66h-4.94v-1.74h11.91v1.74h-4.98v12.66h-2Z"/>
    <path class="st1" d="M185.25,173.34v-14.41h1.99v6.17h7.83v-6.17h2.02v14.41h-2.02v-6.49h-7.83v6.49h-1.99Z"/>
    <path class="st1" d="M202.13,173.34v-14.41h11.09v1.72h-9.09v4.45h8.17v1.72h-8.17v4.79h9.22v1.72h-11.21Z"/>
    <path class="st1" d="M217.78,173.34v-14.41h7.58c.98,0,1.8.18,2.45.54.65.36,1.14.85,1.46,1.49.32.64.48,1.37.48,2.2,0,.99-.22,1.85-.67,2.56-.45.71-1.06,1.23-1.85,1.53l3.02,6.09h-2.18l-2.81-5.73h-5.48v5.73h-1.99ZM219.77,165.91h5.4c.8,0,1.42-.25,1.88-.74.45-.49.68-1.16.68-2.02,0-.53-.1-.98-.29-1.34-.2-.36-.48-.65-.86-.85-.38-.2-.85-.3-1.41-.3h-5.4v5.25Z"/>
    <path class="st1" d="M234.47,173.34v-14.41h1.93l6.99,9.49c.07.08.16.21.27.38.11.17.22.33.34.49.11.16.2.3.27.43h.08v-10.79h1.95v14.41h-1.83l-7.08-9.66c-.1-.15-.24-.37-.43-.65-.19-.28-.35-.5-.47-.67h-.1v10.98h-1.93Z"/>
    <path class="st1" d="M257.17,173.34v-14.41h2v14.41h-2Z"/>
    <path class="st1" d="M264.21,173.34v-14.41h2v12.66h7.16v1.74h-9.16Z"/>
    <path class="st1" d="M276.89,173.34v-14.41h2v12.66h7.16v1.74h-9.16Z"/>
    <path class="st1" d="M289.58,173.34v-14.41h2v14.41h-2Z"/>
    <path class="st1" d="M296.61,173.34v-14.41h1.93l6.99,9.49c.07.08.16.21.27.38s.22.33.34.49c.11.16.2.3.27.43h.08v-10.79h1.95v14.41h-1.83l-7.08-9.66c-.1-.15-.24-.37-.43-.65-.19-.28-.35-.5-.47-.67h-.1v10.98h-1.93Z"/>
    <path class="st1" d="M319.97,173.59c-1.5,0-2.78-.27-3.85-.82-1.07-.55-1.9-1.37-2.48-2.48-.58-1.11-.87-2.49-.87-4.16s.29-3.07.87-4.17c.58-1.1,1.41-1.92,2.48-2.47,1.07-.55,2.35-.82,3.85-.82s2.78.27,3.85.82c1.07.55,1.9,1.37,2.48,2.47.58,1.1.87,2.49.87,4.17s-.29,3.05-.87,4.16c-.58,1.11-1.41,1.93-2.48,2.48-1.07.55-2.36.82-3.85.82ZM319.97,171.87c.78,0,1.49-.11,2.13-.32s1.18-.54,1.62-1,.78-1.03,1.02-1.72c.24-.69.36-1.51.36-2.47v-.44c0-.97-.12-1.8-.36-2.49-.24-.69-.58-1.27-1.02-1.72s-.98-.79-1.62-1-1.35-.31-2.13-.31-1.51.1-2.14.31-1.17.54-1.62,1-.79,1.03-1.02,1.72c-.23.69-.35,1.52-.35,2.49v.44c0,.95.12,1.77.35,2.47.23.69.57,1.27,1.02,1.72s.99.79,1.62,1,1.34.32,2.14.32Z"/>
    <path class="st1" d="M331.47,173.34v-14.41h2v14.41h-2Z"/>
    <path class="st1" d="M343.8,173.59c-.78,0-1.54-.08-2.26-.23-.72-.15-1.36-.4-1.92-.75-.56-.34-1-.79-1.33-1.33-.33-.55-.49-1.22-.49-2.02,0-.07,0-.14.01-.21,0-.07.01-.14.01-.21h2.02s0,.11-.01.2c0,.09,0,.17,0,.24,0,.56.17,1.04.5,1.43.34.39.8.68,1.4.87.59.19,1.27.28,2.03.28.34,0,.69-.02,1.06-.06.37-.04.73-.12,1.07-.22.34-.1.65-.24.92-.42.27-.17.49-.39.65-.65s.24-.58.24-.96c0-.48-.14-.87-.41-1.19-.27-.31-.63-.57-1.08-.78-.45-.2-.96-.38-1.52-.55-.57-.16-1.15-.32-1.75-.47s-1.19-.33-1.75-.54c-.57-.2-1.08-.45-1.52-.76-.45-.3-.81-.67-1.08-1.12-.27-.45-.41-.99-.41-1.64,0-.6.12-1.14.37-1.62.25-.48.61-.88,1.09-1.21.48-.33,1.08-.58,1.8-.76s1.53-.26,2.46-.26c.76,0,1.46.08,2.11.24.65.16,1.22.41,1.72.73s.89.75,1.17,1.25c.28.5.42,1.11.42,1.83v.25h-1.97v-.32c0-.48-.15-.88-.44-1.22s-.7-.59-1.21-.78c-.51-.18-1.09-.27-1.73-.27-.84,0-1.54.08-2.1.24-.56.16-.98.39-1.25.69-.27.3-.41.64-.41,1.02,0,.43.14.8.41,1.09.27.29.63.54,1.08.72.45.19.96.36,1.53.51.57.15,1.16.31,1.75.47.59.16,1.18.34,1.74.55.57.2,1.08.46,1.53.76.46.3.82.68,1.08,1.13.27.46.4,1.01.4,1.67,0,1.02-.25,1.85-.76,2.49-.5.64-1.2,1.1-2.08,1.4-.88.29-1.9.44-3.07.44Z"/>
    <path class="st1" d="M365.12,173.59c-.78,0-1.54-.08-2.27-.24-.73-.16-1.37-.42-1.93-.78-.56-.36-1-.81-1.32-1.37-.32-.55-.48-1.21-.48-1.98,0-.08,0-.16,0-.24,0-.08.01-.14.01-.2h2.35s0,.1-.01.19-.01.15-.01.21c0,.52.15.96.46,1.32s.74.64,1.29.82c.55.18,1.19.27,1.9.27.39,0,.77-.02,1.13-.07s.7-.13,1-.23c.3-.1.56-.24.79-.4.22-.16.4-.35.52-.58.13-.22.19-.48.19-.78,0-.45-.13-.82-.39-1.11s-.61-.54-1.05-.74c-.44-.2-.94-.37-1.49-.52s-1.12-.31-1.71-.46-1.16-.34-1.71-.55-1.05-.47-1.49-.77c-.44-.3-.79-.68-1.05-1.13s-.39-1.01-.39-1.67.13-1.19.4-1.68c.27-.49.65-.9,1.16-1.23.5-.33,1.11-.58,1.81-.75s1.49-.25,2.37-.25c.76,0,1.47.08,2.14.24.67.16,1.26.41,1.76.75s.9.76,1.19,1.28c.29.52.43,1.13.43,1.85v.25h-2.33v-.27c0-.45-.13-.83-.4-1.13-.27-.31-.64-.55-1.11-.71s-1.03-.25-1.66-.25c-.74,0-1.36.07-1.87.22-.5.15-.89.35-1.14.61s-.39.57-.39.93c0,.41.13.74.4,1s.62.48,1.06.66c.44.18.94.35,1.49.49.55.15,1.12.3,1.7.46s1.15.35,1.7.56c.55.21,1.05.47,1.49.78.44.31.79.69,1.06,1.14.27.46.4,1.01.4,1.67,0,1.04-.26,1.88-.78,2.53-.52.65-1.23,1.12-2.13,1.42-.9.29-1.94.44-3.1.44Z"/>
    <path class="st1" d="M375.28,173.34v-14.41h2.35v14.41h-2.35Z"/>
    <path class="st1" d="M382.46,173.34v-14.41h2.27l6.57,9.03c.08.08.18.2.28.36.11.15.21.31.3.46s.17.28.21.38h.11v-10.23h2.27v14.41h-2.18l-6.66-9.13c-.11-.17-.25-.38-.42-.64s-.29-.46-.38-.6h-.11v10.37h-2.27Z"/>
    <path class="st1" d="M405.54,173.59c-1.47,0-2.72-.26-3.75-.79-1.03-.53-1.82-1.34-2.36-2.45-.55-1.11-.82-2.51-.82-4.22,0-2.52.61-4.39,1.84-5.62,1.22-1.22,2.93-1.84,5.11-1.84,1.2,0,2.29.2,3.24.61s1.71,1.01,2.27,1.82c.55.8.83,1.83.83,3.08h-2.39c0-.77-.16-1.41-.48-1.93s-.78-.91-1.38-1.18c-.6-.27-1.29-.4-2.07-.4-.98,0-1.81.19-2.49.58-.68.39-1.19.96-1.53,1.73-.34.77-.51,1.75-.51,2.94v.46c0,1.19.17,2.17.51,2.94.34.77.85,1.34,1.52,1.71.67.37,1.5.56,2.5.56.81,0,1.52-.13,2.12-.39.6-.26,1.07-.65,1.4-1.17s.49-1.16.49-1.93h2.31c0,1.25-.28,2.27-.83,3.09-.55.81-1.31,1.41-2.27,1.81s-2.05.59-3.26.59Z"/>
    <path class="st1" d="M415.96,173.34v-14.41h11.17v2.02h-8.82v4.01h7.9v2.02h-7.9v4.35h8.95v2.02h-11.3Z"/>
    <path class="st1" d="M437.27,173.34v-1.83h3.57v-9.55h-3.57v-1.37c.46-.03.97-.11,1.53-.25.56-.14,1.12-.33,1.68-.57.56-.24,1.07-.52,1.53-.86h1.03v12.6h3.3v1.83h-9.07Z"/>
    <path class="st1" d="M454.28,173.59c-1.04,0-1.88-.2-2.52-.59-.64-.39-1.12-.93-1.43-1.61-.31-.68-.46-1.44-.46-2.28h2.23c0,.57.08,1.06.25,1.46.17.4.42.7.76.9s.76.3,1.28.3c.78,0,1.38-.21,1.77-.62.4-.41.67-1,.83-1.77.15-.77.24-1.68.25-2.73-.13.21-.35.44-.67.68s-.71.45-1.18.61c-.46.16-.97.24-1.53.24-1.02,0-1.86-.21-2.52-.62-.66-.41-1.15-.98-1.47-1.7-.32-.72-.48-1.52-.48-2.4,0-.98.21-1.83.63-2.54s.99-1.27,1.72-1.66c.73-.39,1.55-.59,2.46-.59.83,0,1.57.12,2.23.36.66.24,1.22.63,1.68,1.17.46.54.81,1.26,1.05,2.16s.36,2.02.36,3.35c0,1.47-.12,2.71-.36,3.73-.24,1.02-.58,1.83-1.02,2.44-.44.61-.98,1.05-1.63,1.31-.64.27-1.39.4-2.23.4ZM454.32,166.41c.62,0,1.13-.13,1.53-.39s.71-.62.91-1.07.3-.96.3-1.52-.1-1.04-.29-1.49c-.2-.45-.5-.8-.9-1.06-.41-.26-.92-.39-1.53-.39s-1.12.14-1.52.41c-.4.27-.7.63-.89,1.08-.2.45-.29.95-.29,1.51s.1,1.04.29,1.48c.2.44.49.79.88,1.05.39.26.9.39,1.51.39Z"/>
    <path class="st1" d="M468.31,173.59c-.83,0-1.56-.12-2.21-.36-.65-.24-1.21-.63-1.67-1.17s-.81-1.26-1.05-2.16c-.24-.9-.36-2.02-.36-3.35,0-1.48.12-2.73.35-3.74.23-1.01.57-1.82,1.02-2.42.45-.61.99-1.05,1.64-1.31.64-.27,1.38-.4,2.21-.4,1.04,0,1.88.2,2.53.59.65.39,1.13.92,1.43,1.6.3.67.45,1.43.45,2.29h-2.23c0-.57-.08-1.06-.24-1.46s-.41-.7-.76-.9c-.34-.2-.77-.3-1.29-.3-.77,0-1.36.21-1.77.62-.41.41-.69,1-.84,1.76-.15.76-.23,1.68-.24,2.74.14-.22.37-.46.69-.69.32-.24.72-.44,1.19-.6.47-.16.98-.24,1.54-.24,1.02,0,1.86.21,2.52.62.66.41,1.14.98,1.46,1.69.32.71.47,1.52.47,2.42,0,.97-.21,1.81-.63,2.53-.42.72-.99,1.28-1.72,1.67-.73.39-1.55.59-2.48.59ZM468.16,171.79c.62,0,1.12-.14,1.52-.41.4-.27.7-.64.89-1.09.2-.46.29-.96.29-1.5s-.09-1.04-.28-1.48c-.19-.44-.48-.79-.88-1.05-.4-.26-.91-.39-1.52-.39s-1.13.13-1.53.39c-.41.26-.71.61-.9,1.06-.2.45-.29.96-.29,1.53,0,.53.1,1.03.29,1.48.2.46.49.81.89,1.07.4.26.91.39,1.52.39Z"/>
    <path class="st1" d="M478.54,173.34c0-1.25.15-2.45.46-3.62.31-1.17.72-2.28,1.25-3.34.53-1.06,1.1-2.04,1.72-2.96.62-.92,1.24-1.74,1.86-2.47h-7.48v-2.02h10.21v1.41c-.49.59-1,1.24-1.53,1.94s-1.04,1.46-1.53,2.26c-.49.8-.93,1.62-1.31,2.48-.39.85-.69,1.73-.91,2.62-.22.89-.34,1.78-.34,2.68v1.03h-2.39Z"/>
  </g>
</svg>